<mxfile host="app.diagrams.net" agent="Mozilla/5.0 (Macintosh; Intel Mac OS X 10_15_7) AppleWebKit/537.36 (KHTML, like Gecko) Chrome/133.0.0.0 Safari/537.36" version="26.0.16">
  <diagram name="第 1 页" id="EdI2xcM6f-y7tlCGAeUq">
    <mxGraphModel dx="983" dy="650" grid="1" gridSize="10" guides="1" tooltips="1" connect="1" arrows="1" fold="1" page="1" pageScale="1" pageWidth="827" pageHeight="1169" math="0" shadow="0">
      <root>
        <mxCell id="0" />
        <mxCell id="1" parent="0" />
        <mxCell id="MgJ_tvKgdrmntvB1Ih9e-21" style="edgeStyle=orthogonalEdgeStyle;rounded=0;orthogonalLoop=1;jettySize=auto;html=1;exitX=0;exitY=1;exitDx=0;exitDy=0;entryX=0.5;entryY=0;entryDx=0;entryDy=0;curved=1;" parent="1" source="MgJ_tvKgdrmntvB1Ih9e-1" target="MgJ_tvKgdrmntvB1Ih9e-7" edge="1">
          <mxGeometry relative="1" as="geometry" />
        </mxCell>
        <mxCell id="MgJ_tvKgdrmntvB1Ih9e-22" style="edgeStyle=orthogonalEdgeStyle;rounded=0;orthogonalLoop=1;jettySize=auto;html=1;exitX=1;exitY=1;exitDx=0;exitDy=0;entryX=0.5;entryY=0;entryDx=0;entryDy=0;curved=1;" parent="1" source="MgJ_tvKgdrmntvB1Ih9e-1" target="MgJ_tvKgdrmntvB1Ih9e-12" edge="1">
          <mxGeometry relative="1" as="geometry" />
        </mxCell>
        <mxCell id="MgJ_tvKgdrmntvB1Ih9e-23" style="edgeStyle=orthogonalEdgeStyle;rounded=0;orthogonalLoop=1;jettySize=auto;html=1;exitX=1;exitY=0.5;exitDx=0;exitDy=0;curved=1;" parent="1" source="MgJ_tvKgdrmntvB1Ih9e-1" target="MgJ_tvKgdrmntvB1Ih9e-15" edge="1">
          <mxGeometry relative="1" as="geometry" />
        </mxCell>
        <mxCell id="MgJ_tvKgdrmntvB1Ih9e-1" value="&lt;div&gt;root&lt;/div&gt;" style="ellipse;whiteSpace=wrap;html=1;aspect=fixed;" parent="1" vertex="1">
          <mxGeometry x="470" y="110" width="80" height="80" as="geometry" />
        </mxCell>
        <mxCell id="MgJ_tvKgdrmntvB1Ih9e-4" value="&lt;div&gt;&lt;br class=&quot;Apple-interchange-newline&quot;&gt;char=null&lt;/div&gt;&lt;div&gt;success_state&lt;/div&gt;&lt;div&gt;failure_state&lt;/div&gt;&lt;div&gt;keyword&lt;/div&gt;&lt;div&gt;&lt;br&gt;&lt;/div&gt;&lt;div&gt;&lt;br&gt;&lt;/div&gt;" style="text;html=1;align=center;verticalAlign=middle;whiteSpace=wrap;rounded=0;" parent="1" vertex="1">
          <mxGeometry x="110" y="110" width="120" height="90" as="geometry" />
        </mxCell>
        <mxCell id="MgJ_tvKgdrmntvB1Ih9e-24" style="edgeStyle=orthogonalEdgeStyle;rounded=0;orthogonalLoop=1;jettySize=auto;html=1;exitX=0;exitY=0.5;exitDx=0;exitDy=0;entryX=0.5;entryY=0;entryDx=0;entryDy=0;" parent="1" source="MgJ_tvKgdrmntvB1Ih9e-5" target="MgJ_tvKgdrmntvB1Ih9e-6" edge="1">
          <mxGeometry relative="1" as="geometry" />
        </mxCell>
        <mxCell id="MgJ_tvKgdrmntvB1Ih9e-33" style="edgeStyle=orthogonalEdgeStyle;rounded=0;orthogonalLoop=1;jettySize=auto;html=1;exitX=1;exitY=0.5;exitDx=0;exitDy=0;entryX=0.5;entryY=0;entryDx=0;entryDy=0;" parent="1" source="MgJ_tvKgdrmntvB1Ih9e-5" target="MgJ_tvKgdrmntvB1Ih9e-19" edge="1">
          <mxGeometry relative="1" as="geometry" />
        </mxCell>
        <mxCell id="MgJ_tvKgdrmntvB1Ih9e-5" value="&lt;div&gt;破&lt;/div&gt;" style="ellipse;whiteSpace=wrap;html=1;aspect=fixed;" parent="1" vertex="1">
          <mxGeometry x="150" y="270" width="80" height="80" as="geometry" />
        </mxCell>
        <mxCell id="MgJ_tvKgdrmntvB1Ih9e-6" value="&lt;div&gt;洞&lt;/div&gt;" style="ellipse;whiteSpace=wrap;html=1;aspect=fixed;" parent="1" vertex="1">
          <mxGeometry x="90" y="370" width="80" height="80" as="geometry" />
        </mxCell>
        <mxCell id="MgJ_tvKgdrmntvB1Ih9e-27" style="edgeStyle=orthogonalEdgeStyle;rounded=0;orthogonalLoop=1;jettySize=auto;html=1;exitX=1;exitY=0.5;exitDx=0;exitDy=0;entryX=1;entryY=0;entryDx=0;entryDy=0;" parent="1" source="MgJ_tvKgdrmntvB1Ih9e-7" target="MgJ_tvKgdrmntvB1Ih9e-18" edge="1">
          <mxGeometry relative="1" as="geometry" />
        </mxCell>
        <mxCell id="MgJ_tvKgdrmntvB1Ih9e-39" style="edgeStyle=orthogonalEdgeStyle;rounded=0;orthogonalLoop=1;jettySize=auto;html=1;exitX=0;exitY=0.5;exitDx=0;exitDy=0;entryX=0;entryY=0;entryDx=0;entryDy=0;" parent="1" source="MgJ_tvKgdrmntvB1Ih9e-7" target="MgJ_tvKgdrmntvB1Ih9e-8" edge="1">
          <mxGeometry relative="1" as="geometry" />
        </mxCell>
        <mxCell id="MgJ_tvKgdrmntvB1Ih9e-7" value="&lt;div&gt;损&lt;/div&gt;" style="ellipse;whiteSpace=wrap;html=1;aspect=fixed;" parent="1" vertex="1">
          <mxGeometry x="350" y="270" width="80" height="80" as="geometry" />
        </mxCell>
        <mxCell id="MgJ_tvKgdrmntvB1Ih9e-8" value="&lt;div&gt;坏&lt;/div&gt;" style="ellipse;whiteSpace=wrap;html=1;aspect=fixed;" parent="1" vertex="1">
          <mxGeometry x="300" y="370" width="80" height="80" as="geometry" />
        </mxCell>
        <mxCell id="MgJ_tvKgdrmntvB1Ih9e-11" value="&lt;div&gt;渍&lt;/div&gt;" style="ellipse;whiteSpace=wrap;html=1;aspect=fixed;" parent="1" vertex="1">
          <mxGeometry x="827" y="380" width="80" height="80" as="geometry" />
        </mxCell>
        <mxCell id="MgJ_tvKgdrmntvB1Ih9e-28" style="edgeStyle=orthogonalEdgeStyle;rounded=0;orthogonalLoop=1;jettySize=auto;html=1;exitX=0;exitY=0.5;exitDx=0;exitDy=0;entryX=0;entryY=0;entryDx=0;entryDy=0;" parent="1" source="MgJ_tvKgdrmntvB1Ih9e-12" target="MgJ_tvKgdrmntvB1Ih9e-16" edge="1">
          <mxGeometry relative="1" as="geometry" />
        </mxCell>
        <mxCell id="MgJ_tvKgdrmntvB1Ih9e-29" style="edgeStyle=orthogonalEdgeStyle;rounded=0;orthogonalLoop=1;jettySize=auto;html=1;exitX=1;exitY=0.5;exitDx=0;exitDy=0;entryX=1;entryY=0;entryDx=0;entryDy=0;" parent="1" source="MgJ_tvKgdrmntvB1Ih9e-12" target="MgJ_tvKgdrmntvB1Ih9e-14" edge="1">
          <mxGeometry relative="1" as="geometry" />
        </mxCell>
        <mxCell id="MgJ_tvKgdrmntvB1Ih9e-37" style="edgeStyle=orthogonalEdgeStyle;rounded=0;orthogonalLoop=1;jettySize=auto;html=1;exitX=1;exitY=1;exitDx=0;exitDy=0;entryX=0.5;entryY=0;entryDx=0;entryDy=0;" parent="1" source="MgJ_tvKgdrmntvB1Ih9e-12" target="MgJ_tvKgdrmntvB1Ih9e-36" edge="1">
          <mxGeometry relative="1" as="geometry" />
        </mxCell>
        <mxCell id="MgJ_tvKgdrmntvB1Ih9e-12" value="脏" style="ellipse;whiteSpace=wrap;html=1;aspect=fixed;" parent="1" vertex="1">
          <mxGeometry x="570" y="280" width="80" height="80" as="geometry" />
        </mxCell>
        <mxCell id="MgJ_tvKgdrmntvB1Ih9e-14" value="乱" style="ellipse;whiteSpace=wrap;html=1;aspect=fixed;" parent="1" vertex="1">
          <mxGeometry x="710" y="370" width="80" height="80" as="geometry" />
        </mxCell>
        <mxCell id="MgJ_tvKgdrmntvB1Ih9e-31" style="edgeStyle=orthogonalEdgeStyle;rounded=0;orthogonalLoop=1;jettySize=auto;html=1;exitX=0;exitY=0.5;exitDx=0;exitDy=0;" parent="1" source="MgJ_tvKgdrmntvB1Ih9e-15" target="MgJ_tvKgdrmntvB1Ih9e-11" edge="1">
          <mxGeometry relative="1" as="geometry" />
        </mxCell>
        <mxCell id="MgJ_tvKgdrmntvB1Ih9e-32" style="edgeStyle=orthogonalEdgeStyle;rounded=0;orthogonalLoop=1;jettySize=auto;html=1;exitX=1;exitY=0.5;exitDx=0;exitDy=0;entryX=0.5;entryY=0;entryDx=0;entryDy=0;" parent="1" source="MgJ_tvKgdrmntvB1Ih9e-15" target="MgJ_tvKgdrmntvB1Ih9e-17" edge="1">
          <mxGeometry relative="1" as="geometry" />
        </mxCell>
        <mxCell id="MgJ_tvKgdrmntvB1Ih9e-15" value="&lt;div&gt;污&lt;/div&gt;" style="ellipse;whiteSpace=wrap;html=1;aspect=fixed;" parent="1" vertex="1">
          <mxGeometry x="897" y="280" width="80" height="80" as="geometry" />
        </mxCell>
        <mxCell id="MgJ_tvKgdrmntvB1Ih9e-16" value="&lt;div&gt;污&lt;/div&gt;" style="ellipse;whiteSpace=wrap;html=1;aspect=fixed;" parent="1" vertex="1">
          <mxGeometry x="520" y="370" width="80" height="80" as="geometry" />
        </mxCell>
        <mxCell id="MgJ_tvKgdrmntvB1Ih9e-17" value="垢" style="ellipse;whiteSpace=wrap;html=1;aspect=fixed;" parent="1" vertex="1">
          <mxGeometry x="957" y="380" width="80" height="80" as="geometry" />
        </mxCell>
        <mxCell id="MgJ_tvKgdrmntvB1Ih9e-18" value="伤" style="ellipse;whiteSpace=wrap;html=1;aspect=fixed;" parent="1" vertex="1">
          <mxGeometry x="390" y="370" width="80" height="80" as="geometry" />
        </mxCell>
        <mxCell id="MgJ_tvKgdrmntvB1Ih9e-19" value="旧" style="ellipse;whiteSpace=wrap;html=1;aspect=fixed;" parent="1" vertex="1">
          <mxGeometry x="210" y="370" width="80" height="80" as="geometry" />
        </mxCell>
        <mxCell id="MgJ_tvKgdrmntvB1Ih9e-20" style="edgeStyle=orthogonalEdgeStyle;rounded=0;orthogonalLoop=1;jettySize=auto;html=1;exitX=0;exitY=0.5;exitDx=0;exitDy=0;entryX=0.738;entryY=0.088;entryDx=0;entryDy=0;entryPerimeter=0;curved=1;" parent="1" source="MgJ_tvKgdrmntvB1Ih9e-1" target="MgJ_tvKgdrmntvB1Ih9e-5" edge="1">
          <mxGeometry relative="1" as="geometry" />
        </mxCell>
        <mxCell id="MgJ_tvKgdrmntvB1Ih9e-35" value="&lt;div&gt;兮&lt;/div&gt;" style="ellipse;whiteSpace=wrap;html=1;aspect=fixed;" parent="1" vertex="1">
          <mxGeometry x="610" y="470" width="80" height="80" as="geometry" />
        </mxCell>
        <mxCell id="MgJ_tvKgdrmntvB1Ih9e-38" style="edgeStyle=orthogonalEdgeStyle;rounded=0;orthogonalLoop=1;jettySize=auto;html=1;exitX=0.5;exitY=1;exitDx=0;exitDy=0;entryX=0.5;entryY=0;entryDx=0;entryDy=0;" parent="1" source="MgJ_tvKgdrmntvB1Ih9e-36" target="MgJ_tvKgdrmntvB1Ih9e-35" edge="1">
          <mxGeometry relative="1" as="geometry" />
        </mxCell>
        <mxCell id="MgJ_tvKgdrmntvB1Ih9e-36" value="兮" style="ellipse;whiteSpace=wrap;html=1;aspect=fixed;" parent="1" vertex="1">
          <mxGeometry x="610" y="370" width="80" height="80" as="geometry" />
        </mxCell>
      </root>
    </mxGraphModel>
  </diagram>
</mxfile>
